<?xml version="1.0" encoding="utf-8"?>
<!-- Generator: Adobe Illustrator 21.0.0, SVG Export Plug-In . SVG Version: 6.00 Build 0)  -->
<svg version="1.1" id="Capa_1" xmlns="http://www.w3.org/2000/svg" xmlns:xlink="http://www.w3.org/1999/xlink" x="0px" y="0px"
	 viewBox="0 0 185.1 185.1" style="enable-background:new 0 0 185.1 185.1;" xml:space="preserve">
<style type="text/css">
	.st0{fill:#D6DBE4;}
</style>
<g>
	<path class="st0" d="M23.4,2.5c-1.4,1.6-2.1,3.7-1.8,5.9l16.2,138.1v0l3.8,32c0.4,3.8,3.6,6.6,7.4,6.6h87.1c3.8,0,7-2.8,7.4-6.6
		l3.8-32v0L163.5,8.4c0.3-2.1-0.4-4.3-1.8-5.9c-1.4-1.6-3.5-2.5-5.6-2.5H29C26.9,0,24.8,0.9,23.4,2.5z M129.4,170.1H55.7l-2-16.9
		h77.7L129.4,170.1z M147.7,15l-14.5,123.2H51.9L37.5,15H147.7z"/>
</g>
</svg>
